<mxfile host="app.diagrams.net" modified="2023-07-04T05:03:12.785Z" agent="Mozilla/5.0 (Macintosh; Intel Mac OS X 10_15_7) AppleWebKit/537.36 (KHTML, like Gecko) Chrome/114.0.0.0 Safari/537.36" version="21.5.2" etag="kixBhqOKvwfoKcDDuDrb" type="github">
  <diagram name="페이지-1" id="Js1OTImFa3Anhmr7Zjwk">
    <mxGraphModel>
      <root>
        <mxCell id="0" />
        <mxCell id="1" parent="0" />
      </root>
    </mxGraphModel>
  </diagram>
</mxfile>
